<svg width="239" height="69" viewBox="0 0 239 69" fill="none" xmlns="http://www.w3.org/2000/svg">
<path d="M237.27 61.0844C237.27 64.7423 234.245 67.7052 230.504 67.7052H9.08756C5.34814 67.7052 2.31284 64.7423 2.31284 61.0844V8.28569C2.31284 4.62956 5.34814 1.65625 9.08756 1.65625H230.502C234.245 1.65625 237.268 4.62956 237.268 8.28569L237.27 61.0844Z" fill="black"/>
<path d="M229.79 1.73581C233.864 1.73581 237.18 4.96829 237.18 8.94078V60.4201C237.18 64.3926 233.864 67.6251 229.79 67.6251H9.79268C5.71834 67.6251 2.40298 64.3926 2.40298 60.4201V8.94078C2.40298 4.96829 5.71834 1.73581 9.79268 1.73581H229.79ZM229.79 0.36089H9.79268C4.95495 0.36089 0.992798 4.22399 0.992798 8.94078V60.4201C0.992798 65.1369 4.95495 69 9.79268 69H229.79C234.628 69 238.59 65.1369 238.59 60.4201V8.94078C238.59 4.22399 234.628 0.36089 229.79 0.36089Z" fill="#A6A6A6"/>
<path d="M54.0174 34.3119C53.9664 28.7813 58.662 26.0907 58.8767 25.9654C56.2174 22.1851 52.0955 21.6686 50.6471 21.6274C47.1852 21.2722 43.8272 23.6471 42.0637 23.6471C40.265 23.6471 37.5493 21.6617 34.6225 21.7201C30.8561 21.7767 27.3326 23.9028 25.4002 27.2043C21.4121 33.9361 24.3864 43.8287 28.2074 49.2701C30.1187 51.935 32.3521 54.9105 35.2754 54.8058C38.1354 54.6909 39.2037 53.0281 42.655 53.0281C46.0746 53.0281 47.0778 54.8058 50.0592 54.7389C53.1286 54.6909 55.0611 52.062 56.9055 49.3731C59.1143 46.3186 60.0013 43.3105 60.0365 43.1561C59.9644 43.132 54.0755 40.9407 54.0174 34.3119Z" fill="white"/>
<path d="M48.3855 18.0479C49.9237 16.1723 50.9762 13.6207 50.684 11.0312C48.4577 11.1273 45.6734 12.5327 44.07 14.3671C42.6515 15.9836 41.3843 18.633 41.7117 21.1246C44.2126 21.3065 46.7804 19.8943 48.3855 18.0479Z" fill="white"/>
<path d="M95.4073 54.4241H91.4104L89.221 47.7164H81.6109L79.5253 54.4241H75.634L83.1737 31.5879H87.8306L95.4073 54.4241ZM88.561 44.9022L86.5811 38.9391C86.3716 38.33 85.9791 36.8954 85.4001 34.6372H85.3297C85.0992 35.6084 84.7278 37.043 84.2174 38.9391L82.2726 44.9022H88.561V44.9022Z" fill="white"/>
<path d="M114.797 45.986C114.797 48.7865 114.021 51.0001 112.469 52.6251C111.078 54.0717 109.352 54.7941 107.291 54.7941C105.066 54.7941 103.468 54.0151 102.495 52.457H102.425V61.1312H98.6724V43.376C98.6724 41.6154 98.6249 39.8085 98.5334 37.9552H101.833L102.043 40.5652H102.113C103.364 38.5987 105.264 37.6172 107.812 37.6172C109.804 37.6172 111.467 38.3842 112.798 39.92C114.132 41.4575 114.797 43.479 114.797 45.986ZM110.975 46.1199C110.975 44.5171 110.605 43.1958 109.862 42.1559C109.051 41.0715 107.962 40.5292 106.596 40.5292C105.67 40.5292 104.829 40.8312 104.077 41.4267C103.324 42.0272 102.831 42.8115 102.601 43.7827C102.484 44.2357 102.426 44.6064 102.426 44.8981V47.6436C102.426 48.8414 102.803 49.8521 103.556 50.6775C104.31 51.5029 105.288 51.9147 106.492 51.9147C107.905 51.9147 109.005 51.3828 109.792 50.3223C110.58 49.2601 110.975 47.8599 110.975 46.1199Z" fill="white"/>
<path d="M134.222 45.986C134.222 48.7865 133.446 51.0001 131.892 52.6251C130.503 54.0717 128.776 54.7941 126.715 54.7941C124.491 54.7941 122.893 54.0151 121.921 52.457H121.851V61.1312H118.099V43.376C118.099 41.6154 118.051 39.8085 117.96 37.9552H121.26L121.469 40.5652H121.539C122.789 38.5987 124.688 37.6172 127.238 37.6172C129.229 37.6172 130.892 38.3842 132.226 39.92C133.555 41.4575 134.222 43.479 134.222 45.986ZM130.399 46.1199C130.399 44.5171 130.028 43.1958 129.285 42.1559C128.474 41.0715 127.388 40.5292 126.02 40.5292C125.093 40.5292 124.253 40.8312 123.5 41.4267C122.747 42.0272 122.256 42.8115 122.025 43.7827C121.911 44.2357 121.851 44.6064 121.851 44.8981V47.6436C121.851 48.8414 122.227 49.8521 122.977 50.6775C123.731 51.5012 124.709 51.9147 125.916 51.9147C127.33 51.9147 128.43 51.3828 129.216 50.3223C130.005 49.2601 130.399 47.8599 130.399 46.1199Z" fill="white"/>
<path d="M155.941 48.0188C155.941 49.9613 155.249 51.5417 153.86 52.7617C152.334 54.0951 150.21 54.7609 147.48 54.7609C144.96 54.7609 142.94 54.2872 141.41 53.3383L142.28 50.289C143.927 51.2603 145.735 51.7476 147.704 51.7476C149.117 51.7476 150.217 51.4353 151.007 50.8141C151.794 50.1929 152.187 49.359 152.187 48.3191C152.187 47.3924 151.863 46.6117 151.213 45.9785C150.567 45.3453 149.489 44.7567 147.982 44.2127C143.881 42.7216 141.833 40.5371 141.833 37.6646C141.833 35.7873 142.551 34.2481 143.989 33.0503C145.421 31.8508 147.333 31.252 149.723 31.252C151.854 31.252 153.625 31.614 155.038 32.3365L154.1 35.3188C152.78 34.6187 151.287 34.2686 149.617 34.2686C148.297 34.2686 147.266 34.5861 146.527 35.2176C145.902 35.7821 145.588 36.4702 145.588 37.2853C145.588 38.1879 145.946 38.9344 146.664 39.5213C147.289 40.0635 148.424 40.6504 150.071 41.2836C152.086 42.0746 153.566 42.9995 154.519 44.06C155.467 45.1171 155.941 46.4401 155.941 48.0188Z" fill="white"/>
<path d="M168.346 40.702H164.21V48.6967C164.21 50.7302 164.939 51.746 166.399 51.746C167.07 51.746 167.626 51.6894 168.066 51.5761L168.17 54.3543C167.431 54.6237 166.458 54.7593 165.252 54.7593C163.77 54.7593 162.612 54.3183 161.776 53.438C160.944 52.556 160.525 51.0768 160.525 48.9987V40.6986H158.061V37.953H160.525V34.938L164.21 33.8535V37.953H168.346V40.702Z" fill="white"/>
<path d="M187.007 46.0551C187.007 48.5862 186.264 50.6642 184.782 52.2893C183.228 53.9623 181.166 54.7963 178.594 54.7963C176.116 54.7963 174.143 53.995 172.672 52.3922C171.201 50.7895 170.465 48.7664 170.465 46.328C170.465 43.7763 171.222 41.6862 172.741 40.0612C174.256 38.4345 176.301 37.6211 178.872 37.6211C181.35 37.6211 183.344 38.4225 184.849 40.0269C186.289 41.5833 187.007 43.5927 187.007 46.0551ZM183.114 46.1735C183.114 44.6549 182.781 43.3525 182.107 42.2662C181.32 40.9518 180.196 40.2963 178.739 40.2963C177.23 40.2963 176.085 40.9535 175.298 42.2662C174.624 43.3542 174.291 44.6772 174.291 46.2422C174.291 47.7608 174.624 49.0632 175.298 50.1477C176.109 51.4622 177.243 52.1177 178.705 52.1177C180.138 52.1177 181.262 51.4484 182.074 50.1134C182.765 49.0066 183.114 47.6904 183.114 46.1735Z" fill="white"/>
<path d="M199.204 41.1727C198.833 41.1058 198.437 41.0715 198.022 41.0715C196.702 41.0715 195.681 41.5571 194.963 42.53C194.338 43.388 194.025 44.4725 194.025 45.7818V54.4218H190.274L190.309 43.1409C190.309 41.243 190.262 39.5151 190.169 37.957H193.437L193.574 41.1075H193.678C194.074 40.0247 194.699 39.153 195.554 38.4992C196.39 37.9106 197.293 37.6172 198.266 37.6172C198.613 37.6172 198.926 37.6412 199.204 37.6841V41.1727Z" fill="white"/>
<path d="M215.985 45.411C215.985 46.0665 215.941 46.6191 215.848 47.0704H204.591C204.635 48.6971 205.179 49.9412 206.225 50.7992C207.173 51.5662 208.4 51.9506 209.906 51.9506C211.573 51.9506 213.094 51.6915 214.461 51.1716L215.049 53.7112C213.451 54.3907 211.564 54.7288 209.387 54.7288C206.768 54.7288 204.713 53.9772 203.217 52.4757C201.724 50.9742 200.976 48.958 200.976 46.4286C200.976 43.9456 201.671 41.8778 203.064 40.2288C204.521 38.4682 206.49 37.5879 208.968 37.5879C211.402 37.5879 213.245 38.4682 214.496 40.2288C215.487 41.6273 215.985 43.357 215.985 45.411ZM212.407 44.4621C212.432 43.3776 212.187 42.4407 211.679 41.6496C211.029 40.632 210.031 40.1241 208.688 40.1241C207.462 40.1241 206.464 40.62 205.702 41.6153C205.077 42.4064 204.706 43.3553 204.591 44.4604H212.407V44.4621Z" fill="white"/>
<path d="M87.3196 17.539C87.3196 19.5587 86.6983 21.079 85.4575 22.1C84.3082 23.0421 82.675 23.514 80.5595 23.514C79.5105 23.514 78.6129 23.4694 77.8614 23.3802V12.3447C78.8417 12.1903 79.8977 12.1113 81.0382 12.1113C83.0534 12.1113 84.5722 12.5386 85.5965 13.3932C86.744 14.3593 87.3196 15.7406 87.3196 17.539ZM85.3748 17.5887C85.3748 16.2794 85.0193 15.2756 84.3082 14.5755C83.5972 13.8771 82.5588 13.527 81.1913 13.527C80.6105 13.527 80.116 13.5648 79.7059 13.6437V22.0331C79.9329 22.0674 80.3483 22.0829 80.952 22.0829C82.3635 22.0829 83.4529 21.7002 84.2202 20.9349C84.9876 20.1696 85.3748 19.0542 85.3748 17.5887Z" fill="white"/>
<path d="M97.6315 19.3025C97.6315 20.5466 97.2671 21.5659 96.5385 22.3655C95.7747 23.1875 94.7627 23.5976 93.499 23.5976C92.2811 23.5976 91.3114 23.2047 90.588 22.4153C89.8664 21.6277 89.5056 20.6341 89.5056 19.4364C89.5056 18.1837 89.877 17.1558 90.6232 16.3579C91.3695 15.56 92.3727 15.1602 93.6363 15.1602C94.8542 15.1602 95.8328 15.5531 96.5737 16.3407C97.2777 17.1061 97.6315 18.0945 97.6315 19.3025ZM95.7184 19.3609C95.7184 18.6144 95.5529 17.9744 95.2238 17.4407C94.8366 16.7955 94.2858 16.4729 93.5694 16.4729C92.8285 16.4729 92.2653 16.7955 91.8781 17.4407C91.5472 17.9744 91.3835 18.6247 91.3835 19.3935C91.3835 20.1399 91.549 20.78 91.8781 21.3137C92.2776 21.9589 92.8338 22.2815 93.5518 22.2815C94.2558 22.2815 94.8085 21.9537 95.2062 21.2965C95.5476 20.7525 95.7184 20.1073 95.7184 19.3609Z" fill="white"/>
<path d="M111.458 15.3262L108.862 23.4153H107.172L106.097 19.9027C105.824 19.0258 105.602 18.1541 105.43 17.2893H105.397C105.236 18.1781 105.015 19.0481 104.73 19.9027L103.587 23.4153H101.878L99.4373 15.3262H101.333L102.271 19.1717C102.498 20.0811 102.684 20.9477 102.834 21.768H102.867C103.005 21.0919 103.232 20.2304 103.552 19.1888L104.73 15.3279H106.233L107.361 19.1065C107.634 20.028 107.855 20.9151 108.026 21.7697H108.077C108.202 20.9374 108.39 20.0503 108.64 19.1065L109.647 15.3279H111.458V15.3262Z" fill="white"/>
<path d="M121.02 23.4133H119.175V18.7802C119.175 17.3525 118.619 16.6386 117.503 16.6386C116.956 16.6386 116.514 16.8342 116.171 17.2272C115.831 17.6202 115.659 18.0835 115.659 18.6137V23.4116H113.814V17.6356C113.814 16.9252 113.791 16.1547 113.747 15.3207H115.368L115.455 16.5854H115.506C115.72 16.1925 116.041 15.8681 116.461 15.609C116.961 15.307 117.521 15.1543 118.133 15.1543C118.908 15.1543 119.552 15.398 120.064 15.887C120.701 16.4859 121.02 17.3799 121.02 18.5674V23.4133V23.4133Z" fill="white"/>
<path d="M126.107 23.4141H124.264V11.6133H126.107V23.4141Z" fill="white"/>
<path d="M136.965 19.3025C136.965 20.5466 136.6 21.5659 135.872 22.3655C135.108 23.1875 134.094 23.5976 132.832 23.5976C131.613 23.5976 130.643 23.2047 129.921 22.4153C129.2 21.6277 128.839 20.6341 128.839 19.4364C128.839 18.1837 129.21 17.1558 129.957 16.3579C130.703 15.56 131.706 15.1602 132.968 15.1602C134.188 15.1602 135.164 15.5531 135.907 16.3407C136.611 17.1061 136.965 18.0945 136.965 19.3025ZM135.05 19.3609C135.05 18.6144 134.884 17.9744 134.555 17.4407C134.17 16.7955 133.617 16.4729 132.903 16.4729C132.16 16.4729 131.597 16.7955 131.211 17.4407C130.881 17.9744 130.717 18.6247 130.717 19.3935C130.717 20.1399 130.882 20.78 131.211 21.3137C131.611 21.9589 132.167 22.2815 132.885 22.2815C133.589 22.2815 134.14 21.9537 134.538 21.2965C134.881 20.7525 135.05 20.1073 135.05 19.3609Z" fill="white"/>
<path d="M145.892 23.414H144.236L144.098 22.4822H144.047C143.481 23.2253 142.673 23.5976 141.624 23.5976C140.841 23.5976 140.207 23.3522 139.73 22.8649C139.297 22.4222 139.081 21.8713 139.081 21.2176C139.081 20.2292 139.503 19.4758 140.353 18.9542C141.201 18.4325 142.395 18.1768 143.931 18.1889V18.0379C143.931 16.9722 143.357 16.4403 142.208 16.4403C141.39 16.4403 140.668 16.641 140.045 17.0392L139.67 15.8586C140.441 15.3935 141.393 15.1602 142.516 15.1602C144.684 15.1602 145.772 16.2755 145.772 18.5063V21.4852C145.772 22.2935 145.813 22.937 145.892 23.414ZM143.977 20.6341V19.3866C141.942 19.3523 140.925 19.8963 140.925 21.0168C140.925 21.4389 141.041 21.7547 141.279 21.9657C141.516 22.1768 141.819 22.2815 142.18 22.2815C142.585 22.2815 142.963 22.1562 143.308 21.9074C143.655 21.6568 143.868 21.3394 143.947 20.9499C143.966 20.8623 143.977 20.756 143.977 20.6341Z" fill="white"/>
<path d="M156.372 23.4141H154.736L154.649 22.1151H154.598C154.076 23.1035 153.185 23.5977 151.934 23.5977C150.934 23.5977 150.101 23.215 149.441 22.4497C148.782 21.6844 148.452 20.6908 148.452 19.4707C148.452 18.1615 148.81 17.101 149.528 16.291C150.223 15.536 151.075 15.1585 152.088 15.1585C153.203 15.1585 153.982 15.524 154.426 16.2567H154.461V11.6133H156.307V21.2348C156.307 22.0224 156.328 22.7483 156.372 23.4141ZM154.461 20.0027V18.6539C154.461 18.4206 154.443 18.2318 154.41 18.0877C154.306 17.6552 154.083 17.2915 153.743 16.998C153.4 16.7046 152.986 16.557 152.509 16.557C151.821 16.557 151.282 16.823 150.886 17.3567C150.494 17.8903 150.295 18.5716 150.295 19.4038C150.295 20.2035 150.483 20.8521 150.862 21.3515C151.261 21.8834 151.8 22.1494 152.474 22.1494C153.079 22.1494 153.563 21.928 153.931 21.4836C154.287 21.0735 154.461 20.5793 154.461 20.0027Z" fill="white"/>
<path d="M172.147 19.3025C172.147 20.5466 171.783 21.5659 171.054 22.3655C170.291 23.1875 169.28 23.5976 168.015 23.5976C166.799 23.5976 165.829 23.2047 165.104 22.4153C164.382 21.6277 164.021 20.6341 164.021 19.4364C164.021 18.1837 164.393 17.1558 165.139 16.3579C165.885 15.56 166.888 15.1602 168.154 15.1602C169.37 15.1602 170.35 15.5531 171.09 16.3407C171.794 17.1061 172.147 18.0945 172.147 19.3025ZM170.236 19.3609C170.236 18.6144 170.071 17.9744 169.741 17.4407C169.352 16.7955 168.803 16.4729 168.085 16.4729C167.346 16.4729 166.783 16.7955 166.394 17.4407C166.063 17.9744 165.899 18.6247 165.899 19.3935C165.899 20.1399 166.065 20.78 166.394 21.3137C166.793 21.9589 167.35 22.2815 168.068 22.2815C168.772 22.2815 169.326 21.9537 169.724 21.2965C170.063 20.7525 170.236 20.1073 170.236 19.3609Z" fill="white"/>
<path d="M182.064 23.4133H180.222V18.7802C180.222 17.3525 179.666 16.6386 178.548 16.6386C178.001 16.6386 177.559 16.8342 177.217 17.2272C176.876 17.6202 176.705 18.0835 176.705 18.6137V23.4116H174.859V17.6356C174.859 16.9252 174.838 16.1547 174.794 15.3207H176.413L176.499 16.5854H176.55C176.767 16.1925 177.087 15.8681 177.506 15.609C178.008 15.307 178.566 15.1543 179.18 15.1543C179.952 15.1543 180.597 15.398 181.109 15.887C181.748 16.4859 182.064 17.3799 182.064 18.5674V23.4133V23.4133Z" fill="white"/>
<path d="M194.478 16.6721H192.447V20.6017C192.447 21.6004 192.808 22.0998 193.522 22.0998C193.853 22.0998 194.128 22.0723 194.344 22.0157L194.392 23.3799C194.028 23.5138 193.549 23.5807 192.959 23.5807C192.231 23.5807 191.664 23.3645 191.254 22.932C190.842 22.4996 190.638 21.772 190.638 20.751V16.6721H189.425V15.3251H190.638V13.8425L192.445 13.3105V15.3234H194.476V16.6721H194.478Z" fill="white"/>
<path d="M204.243 23.4141H202.396V18.8152C202.396 17.3652 201.84 16.6394 200.726 16.6394C199.871 16.6394 199.286 17.0598 198.966 17.9006C198.912 18.0774 198.88 18.2936 198.88 18.5475V23.4123H197.037V11.6133H198.88V16.4884H198.915C199.496 15.6012 200.328 15.1585 201.407 15.1585C202.171 15.1585 202.803 15.4022 203.304 15.8912C203.929 16.5004 204.243 17.4064 204.243 18.6042V23.4141V23.4141Z" fill="white"/>
<path d="M214.314 18.9866C214.314 19.3092 214.289 19.5803 214.245 19.8017H208.714C208.738 20.6013 209.002 21.2105 209.515 21.6326C209.983 22.0102 210.586 22.1989 211.326 22.1989C212.144 22.1989 212.89 22.0719 213.562 21.8163L213.851 23.0655C213.064 23.3984 212.139 23.5648 211.067 23.5648C209.782 23.5648 208.77 23.1959 208.038 22.458C207.302 21.7202 206.938 20.73 206.938 19.4877C206.938 18.2676 207.278 17.2518 207.962 16.4418C208.677 15.577 209.643 15.1445 210.863 15.1445C212.056 15.1445 212.962 15.577 213.575 16.4418C214.069 17.1282 214.314 17.9776 214.314 18.9866ZM212.554 18.5216C212.568 17.9879 212.447 17.528 212.197 17.1402C211.876 16.6409 211.389 16.3903 210.729 16.3903C210.127 16.3903 209.636 16.634 209.261 17.1231C208.955 17.5126 208.774 17.9776 208.714 18.5216H212.554Z" fill="white"/>
</svg>
