<svg width="39" height="32" viewBox="0 0 39 32" fill="none" xmlns="http://www.w3.org/2000/svg">
<path d="M8.6876 0.568632C8.52737 0.390814 8.3365 0.249079 8.1259 0.151526C7.91529 0.0539733 7.68907 0.00251408 7.46017 8.98434e-05C7.23128 -0.0023344 7.00418 0.0443232 6.79187 0.137397C6.57955 0.230471 6.38618 0.368137 6.2228 0.542528C4.37468 2.54103 2.90867 4.91779 1.90936 7.53568C0.91004 10.1536 0.397194 12.9608 0.400406 15.7954C0.397408 18.7387 0.950615 21.6513 2.02569 24.3524C3.10077 27.0534 4.67477 29.4854 6.65 31.4972C6.98245 31.8314 7.42158 32.0116 7.87417 31.9994C8.32676 31.9872 8.75716 31.7837 9.074 31.4319C9.8324 30.607 9.7388 29.294 9.0092 28.5343C7.424 26.8911 6.16254 24.9145 5.30148 22.7246C4.44043 20.5346 3.99777 18.1771 4.0004 15.7954C4.0004 10.9765 5.7788 6.60659 8.6636 3.42707C9.3596 2.65699 9.4316 1.37787 8.6876 0.568632ZM12.914 5.17085C12.5979 4.8171 12.1658 4.61406 11.7123 4.60623C11.2589 4.5984 10.821 4.78642 10.4948 5.12908C9.19628 6.52294 8.16557 8.18377 7.46266 10.0149C6.75975 11.8461 6.39866 13.811 6.4004 15.7954C6.39758 17.8935 6.80062 19.9688 7.58334 21.8865C8.36606 23.8042 9.51094 25.5213 10.9436 26.9263C11.273 27.2428 11.7017 27.4094 12.141 27.3914C12.5802 27.3734 12.9962 27.1723 13.3028 26.8297C14.09 25.9735 13.9436 24.6265 13.2044 23.8695C12.1911 22.8335 11.384 21.5824 10.8329 20.1937C10.2818 18.8049 9.99848 17.308 10.0004 15.7954C10.0004 12.7933 11.0972 10.068 12.8804 8.06844C13.5668 7.30097 13.6796 5.99836 12.914 5.16824V5.17085ZM26.2868 5.17085C26.6029 4.8171 27.035 4.61406 27.4885 4.60623C27.9419 4.5984 28.3797 4.78642 28.706 5.12908C30.0045 6.52294 31.0352 8.18377 31.7381 10.0149C32.441 11.8461 32.8021 13.811 32.8004 15.7954C32.8032 17.8935 32.4002 19.9688 31.6174 21.8865C30.8347 23.8042 29.6899 25.5213 28.2572 26.9263C27.9278 27.2428 27.499 27.4094 27.0598 27.3914C26.6206 27.3734 26.2046 27.1723 25.898 26.8297C25.1108 25.9735 25.2572 24.6265 25.9964 23.8695C27.0096 22.8335 27.8168 21.5824 28.3679 20.1937C28.919 18.8049 29.2023 17.308 29.2004 15.7954C29.2004 12.7933 28.1036 10.068 26.3204 8.06844C25.634 7.30097 25.5212 5.99836 26.2868 5.16824V5.17085ZM30.5132 0.571244C30.6734 0.393425 30.8643 0.25169 31.0749 0.154137C31.2855 0.0565836 31.5117 0.00512496 31.7406 0.00270072C31.9695 0.00027648 32.1966 0.0469335 32.4089 0.140007C32.6212 0.233081 32.8146 0.370748 32.978 0.545138C34.8258 2.54333 36.2917 4.91967 37.291 7.53709C38.2903 10.1545 38.8033 12.9612 38.8004 15.7954C38.8034 18.7387 38.2502 21.6513 37.1751 24.3524C36.1 27.0534 34.526 29.4854 32.5508 31.4972C32.2183 31.8314 31.7792 32.0116 31.3266 31.9994C30.874 31.9872 30.4436 31.7837 30.1268 31.4319C29.3684 30.607 29.462 29.294 30.194 28.5343C31.7788 26.8909 33.0398 24.9142 33.9004 22.7243C34.761 20.5343 35.2033 18.177 35.2004 15.7954C35.2004 10.9765 33.422 6.60659 30.5372 3.42707C29.8412 2.65699 29.7692 1.37787 30.5132 0.568632V0.571244ZM19.6004 11.8797C18.6456 11.8797 17.7299 12.2922 17.0548 13.0266C16.3797 13.7609 16.0004 14.7569 16.0004 15.7954C16.0004 16.8339 16.3797 17.8298 17.0548 18.5642C17.7299 19.2985 18.6456 19.711 19.6004 19.711C20.5552 19.711 21.4708 19.2985 22.146 18.5642C22.8211 17.8298 23.2004 16.8339 23.2004 15.7954C23.2004 14.7569 22.8211 13.7609 22.146 13.0266C21.4708 12.2922 20.5552 11.8797 19.6004 11.8797Z" fill="#F9F9F9"/>
</svg>
