<svg width="238" height="69" viewBox="0 0 238 69" fill="none" xmlns="http://www.w3.org/2000/svg">
<path d="M228.483 69H8.78779C3.9567 69 0 65.1369 0 60.4201V8.94078C0 4.22399 3.9567 0.36089 8.78779 0.36089H228.483C233.314 0.36089 237.27 4.22399 237.27 8.94078V60.4201C237.27 65.1369 233.314 69 228.483 69Z" fill="black"/>
<path d="M228.483 1.73581C232.551 1.73581 235.862 4.96829 235.862 8.94078V60.4201C235.862 64.3926 232.551 67.6251 228.483 67.6251H8.78779C4.71904 67.6251 1.40824 64.3926 1.40824 60.4201V8.94078C1.40824 4.96829 4.71904 1.73581 8.78779 1.73581H228.483ZM228.483 0.36089H8.78779C3.9567 0.36089 0 4.22399 0 8.94078V60.4201C0 65.1369 3.9567 69 8.78779 69H228.483C233.314 69 237.27 65.1369 237.27 60.4201V8.94078C237.27 4.22399 233.314 0.36089 228.483 0.36089Z" fill="#A6A6A6"/>
<path d="M83.3384 17.9404C83.3384 19.3733 82.899 20.5208 82.0334 21.3767C81.0382 22.3913 79.742 22.9018 78.1536 22.9018C76.6355 22.9018 75.3393 22.3827 74.276 21.3595C73.2104 20.3214 72.6788 19.0472 72.6788 17.5222C72.6788 15.9971 73.2104 14.723 74.276 13.6934C75.3393 12.6617 76.6355 12.1426 78.1536 12.1426C78.9093 12.1426 79.6299 12.2949 80.3176 12.578C81.003 12.8633 81.561 13.2494 81.9653 13.7256L81.047 14.6307C80.3417 13.8178 79.3817 13.4167 78.1536 13.4167C77.0463 13.4167 76.0863 13.7942 75.2712 14.5557C74.4649 15.3193 74.0607 16.3081 74.0607 17.5222C74.0607 18.7362 74.4649 19.7336 75.2712 20.4972C76.0863 21.2501 77.0463 21.6362 78.1536 21.6362C79.329 21.6362 80.3176 21.2501 81.0975 20.4887C81.6116 19.9846 81.9038 19.2896 81.9807 18.4016H78.1536V17.1618H83.2593C83.3208 17.4299 83.3384 17.6895 83.3384 17.9404V17.9404Z" fill="white" stroke="white" stroke-width="0.18614" stroke-miterlimit="10"/>
<path d="M91.4392 13.6384H86.6432V16.8987H90.9668V18.1385H86.6432V21.3989H91.4392V22.6623H85.2855V12.375H91.4392V13.6384Z" fill="white" stroke="white" stroke-width="0.18614" stroke-miterlimit="10"/>
<path d="M97.1559 22.6642H95.7982V13.6403H92.8565V12.377H100.1V13.6403H97.1559V22.6642V22.6642Z" fill="white" stroke="white" stroke-width="0.18614" stroke-miterlimit="10"/>
<path d="M105.342 22.6642V12.377H106.697V22.6642H105.342Z" fill="white" stroke="white" stroke-width="0.18614" stroke-miterlimit="10"/>
<path d="M112.706 22.6623H111.359V13.6384H108.406V12.375H115.658V13.6384H112.706V22.6623Z" fill="white" stroke="white" stroke-width="0.18614" stroke-miterlimit="10"/>
<path d="M129.372 21.3424C128.333 22.3827 127.045 22.9018 125.51 22.9018C123.965 22.9018 122.678 22.3827 121.638 21.3424C120.602 20.3042 120.085 19.0301 120.085 17.5222C120.085 16.0143 120.602 14.7401 121.638 13.702C122.678 12.6617 123.965 12.1426 125.51 12.1426C127.036 12.1426 128.324 12.6617 129.363 13.7106C130.409 14.7573 130.925 16.0228 130.925 17.5222C130.925 19.0301 130.409 20.3042 129.372 21.3424ZM122.643 20.4801C123.425 21.2501 124.376 21.6362 125.51 21.6362C126.634 21.6362 127.594 21.2501 128.368 20.4801C129.148 19.71 129.543 18.7212 129.543 17.5222C129.543 16.3231 129.148 15.3343 128.368 14.5643C127.594 13.7942 126.634 13.4081 125.51 13.4081C124.376 13.4081 123.425 13.7942 122.643 14.5643C121.863 15.3343 121.467 16.3231 121.467 17.5222C121.467 18.7212 121.863 19.71 122.643 20.4801V20.4801Z" fill="white" stroke="white" stroke-width="0.18614" stroke-miterlimit="10"/>
<path d="M132.83 22.6642V12.377H134.477L139.601 20.3777H139.66L139.601 18.4V12.377H140.956V22.6642H139.541L134.176 14.2688H134.117L134.176 16.2551V22.6642H132.83V22.6642Z" fill="white" stroke="white" stroke-width="0.18614" stroke-miterlimit="10"/>
<path d="M119.751 37.6865C115.623 37.6865 112.251 40.7538 112.251 44.9859C112.251 49.1836 115.623 52.283 119.751 52.283C123.888 52.283 127.26 49.1836 127.26 44.9859C127.26 40.7538 123.888 37.6865 119.751 37.6865ZM119.751 49.4088C117.486 49.4088 115.537 47.5834 115.537 44.9859C115.537 42.354 117.486 40.5608 119.751 40.5608C122.016 40.5608 123.974 42.354 123.974 44.9859C123.974 47.5834 122.016 49.4088 119.751 49.4088V49.4088ZM103.386 37.6865C99.2491 37.6865 95.8856 40.7538 95.8856 44.9859C95.8856 49.1836 99.2491 52.283 103.386 52.283C107.521 52.283 110.886 49.1836 110.886 44.9859C110.886 40.7538 107.521 37.6865 103.386 37.6865ZM103.386 49.4088C101.119 49.4088 99.1634 47.5834 99.1634 44.9859C99.1634 42.354 101.119 40.5608 103.386 40.5608C105.651 40.5608 107.6 42.354 107.6 44.9859C107.6 47.5834 105.651 49.4088 103.386 49.4088ZM83.9122 39.9237V43.0254H91.4983C91.2764 44.7585 90.6832 46.0326 89.7737 46.9206C88.6664 47.9931 86.9418 49.1836 83.9122 49.1836C79.2437 49.1836 75.588 45.5049 75.588 40.9469C75.588 36.3888 79.2437 32.7102 83.9122 32.7102C86.4365 32.7102 88.2732 33.6733 89.6287 34.9217L91.8674 32.7359C89.9714 30.9685 87.4493 29.6107 83.9122 29.6107C77.5103 29.6107 72.13 34.6964 72.13 40.9469C72.13 47.1973 77.5103 52.283 83.9122 52.283C87.3724 52.283 89.9714 51.1762 92.0146 49.0999C94.1082 47.0558 94.7607 44.1815 94.7607 41.8606C94.7607 41.1399 94.6992 40.4771 94.5894 39.9237H83.9122ZM163.543 42.3282C162.925 40.6959 161.021 37.6865 157.141 37.6865C153.296 37.6865 150.095 40.6444 150.095 44.9859C150.095 49.0742 153.263 52.283 157.51 52.283C160.944 52.283 162.925 50.2389 163.74 49.0484L161.192 47.3904C160.342 48.6044 159.184 49.4088 157.51 49.4088C155.847 49.4088 154.654 48.6645 153.889 47.1973L163.888 43.1583L163.543 42.3282V42.3282ZM153.349 44.7585C153.263 41.9443 155.588 40.5029 157.253 40.5029C158.558 40.5029 159.665 41.1399 160.034 42.0515L153.349 44.7585V44.7585ZM145.222 51.839H148.509V30.3893H145.222V51.839ZM139.84 39.3124H139.73C138.992 38.4587 137.584 37.6865 135.8 37.6865C132.056 37.6865 128.633 40.8954 128.633 45.0095C128.633 49.0999 132.056 52.283 135.8 52.283C137.584 52.283 138.992 51.5044 139.73 50.625H139.84V51.6717C139.84 54.4623 138.313 55.9617 135.85 55.9617C133.842 55.9617 132.597 54.546 132.082 53.3555L129.224 54.5203C130.048 56.455 132.23 58.8359 135.85 58.8359C139.704 58.8359 142.955 56.6223 142.955 51.2363V38.1305H139.84V39.3124V39.3124ZM136.081 49.4088C133.816 49.4088 131.92 47.5577 131.92 45.0095C131.92 42.4376 133.816 40.5608 136.081 40.5608C138.313 40.5608 140.073 42.4376 140.073 45.0095C140.073 47.5577 138.313 49.4088 136.081 49.4088V49.4088ZM178.93 30.3893H171.069V51.839H174.347V43.7117H178.93C182.571 43.7117 186.141 41.1399 186.141 37.0495C186.141 32.9611 182.562 30.3893 178.93 30.3893V30.3893ZM179.016 40.7281H174.347V33.373H179.016C181.463 33.373 182.861 35.3571 182.861 37.0495C182.861 38.7097 181.463 40.7281 179.016 40.7281ZM199.278 37.6458C196.91 37.6458 194.447 38.6668 193.434 40.9297L196.343 42.1202C196.969 40.9297 198.121 40.5436 199.338 40.5436C201.038 40.5436 202.763 41.541 202.789 43.3021V43.5273C202.196 43.1927 200.926 42.6972 199.364 42.6972C196.231 42.6972 193.039 44.381 193.039 47.5234C193.039 50.3976 195.605 52.2487 198.49 52.2487C200.695 52.2487 201.912 51.2771 202.677 50.1467H202.789V51.8047H205.955V43.5766C205.955 39.7736 203.046 37.6458 199.278 37.6458ZM198.883 49.4002C197.811 49.4002 196.317 48.8811 196.317 47.5834C196.317 45.9232 198.18 45.2862 199.792 45.2862C201.236 45.2862 201.912 45.5972 202.789 46.0069C202.532 47.9931 200.781 49.4002 198.883 49.4002V49.4002ZM217.489 38.1155L213.721 47.414H213.609L209.714 38.1155H206.179L212.032 51.1097L208.692 58.3404H212.117L221.136 38.1155H217.489V38.1155ZM187.942 51.839H191.229V30.3893H187.942V51.839Z" fill="white"/>
<path d="M18.3406 13.2966C17.8243 13.8243 17.5256 14.6458 17.5256 15.7097V53.6586C17.5256 54.7225 17.8243 55.544 18.3406 56.0717L18.468 56.1875L40.2486 34.9308V34.4289L18.468 13.1722L18.3406 13.2966Z" fill="url(#paint0_linear_1697_3312)"/>
<path d="M47.5001 42.0215L40.2479 34.9324V34.4304L47.5089 27.3413L47.6714 27.4335L56.2703 32.2104C58.7243 33.566 58.7243 35.7968 56.2703 37.161L47.6714 41.9292L47.5001 42.0215V42.0215Z" fill="url(#paint1_linear_1697_3312)"/>
<path d="M47.6718 41.9299L40.2484 34.682L18.3404 56.0738C19.1555 56.9104 20.4846 57.0112 21.9961 56.1746L47.6718 41.9299" fill="url(#paint2_linear_1697_3312)"/>
<path d="M47.6718 27.4338L21.9961 13.189C20.4846 12.3611 19.1555 12.4619 18.3404 13.2984L40.2484 34.6816L47.6718 27.4338Z" fill="url(#paint3_linear_1697_3312)"/>
<defs>
<linearGradient id="paint0_linear_1697_3312" x1="38.3147" y1="54.0538" x2="9.52476" y2="24.5662" gradientUnits="userSpaceOnUse">
<stop stop-color="#00A0FF"/>
<stop offset="0.0066" stop-color="#00A1FF"/>
<stop offset="0.2601" stop-color="#00BEFF"/>
<stop offset="0.5122" stop-color="#00D2FF"/>
<stop offset="0.7604" stop-color="#00DFFF"/>
<stop offset="1" stop-color="#00E3FF"/>
</linearGradient>
<linearGradient id="paint1_linear_1697_3312" x1="59.4658" y1="34.679" x2="16.9383" y2="34.679" gradientUnits="userSpaceOnUse">
<stop stop-color="#FFE000"/>
<stop offset="0.4087" stop-color="#FFBD00"/>
<stop offset="0.7754" stop-color="#FFA500"/>
<stop offset="1" stop-color="#FF9C00"/>
</linearGradient>
<linearGradient id="paint2_linear_1697_3312" x1="43.6352" y1="30.742" x2="4.59362" y2="-9.24561" gradientUnits="userSpaceOnUse">
<stop stop-color="#FF3A44"/>
<stop offset="1" stop-color="#C31162"/>
</linearGradient>
<linearGradient id="paint3_linear_1697_3312" x1="12.8257" y1="68.6989" x2="30.2595" y2="50.8428" gradientUnits="userSpaceOnUse">
<stop stop-color="#32A071"/>
<stop offset="0.0685" stop-color="#2DA771"/>
<stop offset="0.4762" stop-color="#15CF74"/>
<stop offset="0.8009" stop-color="#06E775"/>
<stop offset="1" stop-color="#00F076"/>
</linearGradient>
</defs>
</svg>
