<svg width="32" height="33" viewBox="0 0 32 33" fill="none" xmlns="http://www.w3.org/2000/svg">
<path fill-rule="evenodd" clip-rule="evenodd" d="M9.58075 0.554746C11.2054 0.475996 11.7234 0.458496 15.862 0.458496C20.0005 0.458496 20.5186 0.477454 22.1418 0.554746C23.7651 0.632038 24.8732 0.904746 25.8427 1.29995C26.858 1.70391 27.779 2.33537 28.5408 3.15204C29.3165 3.95266 29.9148 4.921 30.2971 5.99141C30.6738 7.01225 30.9314 8.17891 31.0062 9.88516C31.081 11.5987 31.0976 12.1441 31.0976 16.5002C31.0976 20.8577 31.0796 21.4031 31.0062 23.1137C30.9328 24.82 30.6738 25.9866 30.2971 27.0075C29.9148 28.078 29.3155 29.048 28.5408 29.8497C27.779 30.6664 26.858 31.2964 25.8427 31.6989C24.8732 32.0956 23.7651 32.3668 22.1446 32.4456C20.5186 32.5243 20.0005 32.5418 15.862 32.5418C11.7234 32.5418 11.2054 32.5229 9.58075 32.4456C7.96023 32.3683 6.85218 32.0956 5.88264 31.6989C4.8659 31.2964 3.94469 30.6653 3.18316 29.8497C2.40805 29.0486 1.80823 28.0792 1.42552 27.0089C1.05017 25.9881 0.79255 24.8214 0.717757 23.1152C0.642963 21.4016 0.626343 20.8562 0.626343 16.5002C0.626343 12.1427 0.644349 11.5972 0.717757 9.88808C0.791165 8.17891 1.05017 7.01225 1.42552 5.99141C1.8088 4.92111 2.40908 3.95166 3.18455 3.15058C3.945 2.33464 4.86528 1.7031 5.88126 1.29995C6.8508 0.904746 7.95884 0.633496 9.57936 0.554746H9.58075ZM22.0186 3.44225C20.4119 3.36495 19.9299 3.34891 15.862 3.34891C11.7941 3.34891 11.3121 3.36495 9.7054 3.44225C8.21924 3.5137 7.41313 3.77475 6.87573 3.99495C6.16519 4.28662 5.65688 4.63225 5.12363 5.1937C4.61814 5.71149 4.22913 6.34182 3.98511 7.0385C3.77597 7.60433 3.52804 8.45308 3.46017 10.0179C3.38677 11.7095 3.37153 12.217 3.37153 16.5002C3.37153 20.7833 3.38677 21.2908 3.46017 22.9825C3.52804 24.5472 3.77597 25.396 3.98511 25.9618C4.22888 26.6575 4.61808 27.2889 5.12363 27.8066C5.61532 28.3389 6.21506 28.7487 6.87573 29.0054C7.41313 29.2256 8.21924 29.4866 9.7054 29.5581C11.3121 29.6354 11.7927 29.6514 15.862 29.6514C19.9313 29.6514 20.4119 29.6354 22.0186 29.5581C23.5047 29.4866 24.3109 29.2256 24.8483 29.0054C25.5588 28.7137 26.0671 28.3681 26.6004 27.8066C27.1059 27.2889 27.4951 26.6575 27.7389 25.9618C27.948 25.396 28.1959 24.5472 28.2638 22.9825C28.3372 21.2908 28.3525 20.7833 28.3525 16.5002C28.3525 12.217 28.3372 11.7095 28.2638 10.0179C28.1959 8.45308 27.948 7.60433 27.7389 7.0385C27.4619 6.29037 27.1336 5.75516 26.6004 5.1937C26.1086 4.66152 25.5099 4.25193 24.8483 3.99495C24.3109 3.77475 23.5047 3.5137 22.0186 3.44225ZM13.916 21.4454C15.0028 21.9217 16.2129 21.986 17.3398 21.6273C18.4666 21.2685 19.4401 20.509 20.0942 19.4784C20.7482 18.4479 21.0422 17.2102 20.9258 15.9768C20.8095 14.7434 20.29 13.5907 19.4562 12.7158C18.9247 12.1565 18.282 11.7282 17.5744 11.4618C16.8668 11.1954 16.1119 11.0976 15.3641 11.1752C14.6162 11.2529 13.894 11.5042 13.2495 11.911C12.605 12.3178 12.0541 12.87 11.6366 13.5279C11.2191 14.1857 10.9453 14.9329 10.8349 15.7155C10.7246 16.4982 10.7804 17.2968 10.9984 18.054C11.2164 18.8112 11.5911 19.5081 12.0956 20.0945C12.6001 20.681 13.2218 21.1423 13.916 21.4454ZM10.3245 10.6697C11.0517 9.90408 11.915 9.29673 12.8651 8.88236C13.8153 8.46798 14.8336 8.25471 15.862 8.25471C16.8904 8.25471 17.9087 8.46798 18.8588 8.88236C19.809 9.29673 20.6723 9.90408 21.3995 10.6697C22.1266 11.4354 22.7035 12.3444 23.097 13.3448C23.4906 14.3451 23.6931 15.4174 23.6931 16.5002C23.6931 17.583 23.4906 18.6552 23.097 19.6556C22.7035 20.6559 22.1266 21.5649 21.3995 22.3306C19.9308 23.8769 17.9389 24.7456 15.862 24.7456C13.785 24.7456 11.7932 23.8769 10.3245 22.3306C8.8559 20.7843 8.03083 18.687 8.03083 16.5002C8.03083 14.3133 8.8559 12.2161 10.3245 10.6697ZM25.43 9.48266C25.6102 9.30368 25.7544 9.08845 25.8542 8.84971C25.954 8.61097 26.0073 8.35358 26.0109 8.09277C26.0145 7.83196 25.9684 7.57304 25.8752 7.33134C25.7821 7.08964 25.6439 6.87007 25.4687 6.68564C25.2935 6.5012 25.085 6.35564 24.8554 6.25758C24.6259 6.15953 24.38 6.11096 24.1323 6.11476C23.8846 6.11856 23.6401 6.17466 23.4134 6.27972C23.1866 6.38478 22.9822 6.53668 22.8122 6.72641C22.4816 7.09541 22.3006 7.58555 22.3076 8.09277C22.3147 8.59999 22.5092 9.08436 22.8498 9.44306C23.1905 9.80176 23.6505 10.0065 24.1323 10.0139C24.614 10.0213 25.0795 9.83075 25.43 9.48266Z" fill="#F9F9F9"/>
</svg>
