<svg width="60" height="42" viewBox="0 0 60 42" fill="none" xmlns="http://www.w3.org/2000/svg">
<path d="M9 6C9 2.68594 11.6906 0 15 0H54C57.3094 0 60 2.68594 60 6V27C60 30.3094 57.3094 33 54 33H15C11.6906 33 9 30.3094 9 27V6ZM15 27H21C21 23.6906 18.3094 21 15 21V27ZM15 6V12C18.3094 12 21 9.30937 21 6H15ZM54 21C50.6906 21 48 23.6906 48 27H54V21ZM48 6C48 9.30937 50.6906 12 54 12V6H48ZM34.5 9C30.3563 9 27 12.3562 27 16.5C27 20.6437 30.3563 24 34.5 24C38.6437 24 42 20.6437 42 16.5C42 12.3562 38.6437 9 34.5 9ZM4.5 30.75C4.5 34.4813 7.5225 37.5 11.25 37.5H48.75C49.9969 37.5 51 38.5031 51 39.75C51 40.9969 49.9969 42 48.75 42H11.25C5.03719 42 0 36.9656 0 30.75V8.25C0 7.00313 1.00781 6 2.25 6C3.49219 6 4.5 7.00313 4.5 8.25V30.75Z" fill="#F9F9F9"/>
</svg>
