<svg width="25" height="31" viewBox="0 0 25 31" fill="none" xmlns="http://www.w3.org/2000/svg">
<path d="M22.7727 7.75609C21.392 7.43641 20.143 6.66443 19.2049 5.55093C18.2668 4.43743 17.6878 3.03965 17.551 1.55817V0.916504H12.7726V20.8519C12.7736 21.7365 12.5102 22.599 12.0197 23.3172C11.5293 24.0353 10.8367 24.5729 10.04 24.8536C9.24325 25.1342 8.38286 25.1439 7.58066 24.8811C6.77846 24.6183 6.07513 24.0965 5.57028 23.3894C5.11799 22.7636 4.84103 22.0169 4.77073 21.234C4.70042 20.4511 4.83958 19.663 5.17246 18.959C5.50534 18.255 6.01866 17.6631 6.65438 17.2502C7.2901 16.8373 8.02285 16.62 8.76976 16.6228C9.18284 16.6203 9.59386 16.6842 9.98862 16.8123V11.7082C9.52924 11.6483 9.06632 11.6239 8.60356 11.6353C6.89898 11.6832 5.24468 12.2535 3.84323 13.2763C2.44178 14.299 1.35401 15.7299 0.713122 17.3937C0.072236 19.0574 -0.093949 20.8819 0.234917 22.6436C0.563783 24.4053 1.37343 26.0277 2.5647 27.3123C3.78561 28.6193 5.34797 29.5146 7.05325 29.8845C8.75854 30.2545 10.5298 30.0823 12.1419 29.3899C13.754 28.6975 15.1343 27.5161 16.1073 25.9958C17.0803 24.4756 17.6021 22.6851 17.6064 20.8519V10.6436C19.5337 12.0931 21.8447 12.8685 24.2132 12.8603V7.90192C23.7479 7.90394 23.2838 7.85507 22.8281 7.75609H22.7727Z" fill="#F9F9F9"/>
</svg>
