<svg width="32" height="27" viewBox="0 0 32 27" fill="none" xmlns="http://www.w3.org/2000/svg">
<path d="M31.6276 3.19988C30.4711 3.73947 29.2287 4.10405 27.9226 4.26884C29.2702 3.41979 30.2785 2.08348 30.7592 0.509259C29.493 1.30112 28.1073 1.8585 26.6622 2.15718C25.6904 1.06469 24.4032 0.340567 23.0005 0.0972415C21.5978 -0.146085 20.1581 0.104996 18.9048 0.811502C17.6515 1.51801 16.6548 2.64041 16.0695 4.00445C15.4841 5.36849 15.3428 6.89785 15.6676 8.35509C13.102 8.21946 10.5922 7.51735 8.30104 6.29433C6.00987 5.0713 3.98854 3.3547 2.36824 1.25593C1.81422 2.26217 1.49566 3.42884 1.49566 4.67134C1.49504 5.78988 1.75665 6.89128 2.25727 7.87782C2.7579 8.86437 3.48206 9.70556 4.3655 10.3268C3.34094 10.2924 2.33898 10.0009 1.44303 9.47655V9.56405C1.44292 11.1328 1.95831 12.6533 2.90175 13.8676C3.84518 15.0818 5.15854 15.915 6.61899 16.2257C5.66854 16.4965 4.67206 16.5364 3.70483 16.3424C4.11688 17.6922 4.91952 18.8726 6.00038 19.7183C7.08124 20.564 8.38621 21.0326 9.7326 21.0586C7.44702 22.9478 4.62435 23.9725 1.71865 23.968C1.20394 23.9681 0.689659 23.9365 0.178467 23.8732C3.12792 25.8699 6.56129 26.9296 10.0678 26.9255C21.9377 26.9255 28.4267 16.5743 28.4267 7.59676C28.4267 7.30509 28.4198 7.01051 28.4074 6.71884C29.6695 5.75776 30.7591 4.56765 31.6248 3.20426L31.6276 3.19988Z" fill="#F9F9F9"/>
</svg>
