<svg width="39" height="32" viewBox="0 0 39 32" fill="none" xmlns="http://www.w3.org/2000/svg">
<path d="M15.359 19.5653H23.0387V8.89334H28.7985L19.1988 0L9.59916 8.89334H15.359V19.5653ZM37.1272 22.2903C36.724 21.8918 34.0341 19.2256 33.2662 18.5302C32.728 18.0522 32.0111 17.7858 31.2656 17.7867H27.8923L33.775 23.112H26.9707C26.8782 23.1104 26.7869 23.1315 26.7061 23.173C26.6252 23.2145 26.5575 23.2751 26.5099 23.3486L24.9433 26.68H13.4544L11.8877 23.3486C11.8398 23.2753 11.7721 23.215 11.6913 23.1735C11.6105 23.132 11.5193 23.1108 11.4269 23.112H4.62269L10.5034 17.7867H7.13205C6.36983 17.7867 5.64218 18.0695 5.13147 18.5302C4.3635 19.2274 1.67368 21.8936 1.27049 22.2903C0.331643 23.2169 -0.184819 23.9551 0.0609325 24.8675L1.13801 30.3352C1.38377 31.2494 2.46469 32 3.54177 32H34.8597C35.9368 32 37.0177 31.2494 37.2635 30.3352L38.3406 24.8675C38.5825 23.9551 38.0679 23.2169 37.1272 22.2903Z" fill="#F9F9F9"/>
</svg>
