<svg width="60" height="47" viewBox="0 0 60 47" fill="none" xmlns="http://www.w3.org/2000/svg">
<path d="M58.0606 16.8337H54.2985V8.50039C54.2985 8.05836 54.0942 7.63444 53.7305 7.32188C53.3668 7.00932 52.8736 6.83372 52.3593 6.83372H5.8177C5.30338 6.83372 4.81013 6.65813 4.44645 6.34557C4.08278 6.03301 3.87846 5.60908 3.87846 5.16706C3.87846 4.72503 4.08278 4.30111 4.44645 3.98855C4.81013 3.67598 5.30338 3.50039 5.8177 3.50039H51.5836C52.0979 3.50039 52.5911 3.32479 52.9548 3.01223C53.3185 2.69967 53.5228 2.27575 53.5228 1.83372C53.5228 1.3917 53.3185 0.967773 52.9548 0.655212C52.5911 0.342652 52.0979 0.167057 51.5836 0.167057H5.8177C5.06895 0.15379 4.32449 0.267436 3.62685 0.501502C2.92922 0.735569 2.29207 1.08547 1.75182 1.53122C1.21156 1.97697 0.778784 2.50982 0.478202 3.09936C0.17762 3.68889 0.0151248 4.32354 0 4.96706V39.967C0.00253824 40.8724 0.212858 41.7684 0.618913 42.6038C1.02497 43.4392 1.61878 44.1975 2.36635 44.8353C3.11391 45.4732 4.00054 45.978 4.97546 46.3209C5.95038 46.6639 6.99442 46.8381 8.04782 46.8337H52.3593C52.8736 46.8337 53.3668 46.6581 53.7305 46.3456C54.0942 46.033 54.2985 45.6091 54.2985 45.167V36.8337H58.0606C58.3054 36.8496 58.5514 36.8224 58.7835 36.7538C59.0156 36.6852 59.229 36.5765 59.4105 36.4345C59.592 36.2925 59.738 36.1202 59.8393 35.928C59.9406 35.7359 59.9953 35.528 59.9999 35.3171V18.6504C60.0062 18.1924 59.8092 17.7495 59.4489 17.4119C59.0886 17.0744 58.5921 16.8676 58.0606 16.8337ZM56.2377 33.5004H39.5991C37.6118 33.4396 35.7337 32.7033 34.3775 31.4533C33.0213 30.2033 32.2977 28.5418 32.3658 26.8337C32.2977 25.1256 33.0213 23.4641 34.3775 22.2141C35.7337 20.9641 37.6118 20.2279 39.5991 20.1671H56.2377V33.5004Z" fill="#F9F9F9"/>
</svg>
