<svg width="34" height="25" viewBox="0 0 34 25" fill="none" xmlns="http://www.w3.org/2000/svg">
<path d="M32.5491 4.48944C32.3609 3.78249 31.9943 3.14245 31.4882 2.63736C30.9678 2.11674 30.33 1.74433 29.635 1.55528C27.0338 0.833403 16.6126 0.833404 16.6126 0.833404C12.2682 0.78136 7.92476 1.01026 3.60694 1.51882C2.9119 1.72184 2.27529 2.10257 1.75373 2.62715C1.24126 3.14632 0.870062 3.78653 0.676153 4.48799C0.210348 7.13011 -0.0159718 9.81286 0.000244484 12.5001C-0.0163762 15.1849 0.209388 17.8667 0.676153 20.5122C0.865906 21.2107 1.23572 21.848 1.74957 22.3628C2.26343 22.8776 2.90333 23.2494 3.60694 23.4463C6.24271 24.1667 16.6126 24.1667 16.6126 24.1667C20.9626 24.2189 25.3116 23.99 29.635 23.4813C30.33 23.2923 30.9678 22.9199 31.4882 22.3992C31.9941 21.8942 32.3603 21.2541 32.5477 20.5472C33.0257 17.906 33.2581 15.2222 33.2417 12.5336C33.2776 9.83366 33.0455 7.13714 32.5491 4.48799V4.48944ZM13.2996 17.4934V7.50819L21.9701 12.5015L13.2996 17.4934Z" fill="#F9F9F9"/>
</svg>
